<?xml version="1.0" encoding="utf-8"?>
<!-- Generator: Adobe Illustrator 21.1.0, SVG Export Plug-In . SVG Version: 6.00 Build 0)  -->
<svg version="1.1" id="Layer_1" xmlns="http://www.w3.org/2000/svg" xmlns:xlink="http://www.w3.org/1999/xlink" x="0px" y="0px"
	 width="80px" height="80px" viewBox="0 0 80 80" style="enable-background:new 0 0 80 80;" xml:space="preserve">
<style type="text/css">
	.st0{clip-path:url(#SVGID_2_);fill:#CA61A1;}
</style>
<g>
	<g>
		<defs>
			<rect id="SVGID_1_" width="80" height="80"/>
		</defs>
		<clipPath id="SVGID_2_">
			<use xlink:href="#SVGID_1_"  style="overflow:visible;"/>
		</clipPath>
		<path class="st0" d="M79.7,20.7c-1-5.9-3.4-11.1-7.9-15.1c-9.3-8.2-23.5-7.4-32,1.7c-0.8,0.8-0.8,0.8-1.6,0
			C33.6,2.7,28,0.2,21.5,0.3c-9.1,0-19.9,6-21.3,19.4C-0.4,25,0.5,30.1,2.6,35c2.6,6.2,6.5,11.6,10.8,16.6c7,8.1,14.8,15.3,23,22.1
			c0.9,0.8,1.8,1.6,2.6,2.6c0.3,0.4,0.5,0.8,0.3,1.3c-0.3,1,0.4,2,1.4,2.3c1.1,0.3,2.1-0.1,2.4-1.2c0.8-3.1,2.5-5.5,4.6-7.8
			c4.9-5.3,10.1-10.1,15.4-15c4.6-4.2,8.7-8.7,11.9-14.1c3.1-5.1,5-10.6,4.9-16.8C80,23.7,79.9,22.2,79.7,20.7 M68.3,45
			c-3.2,4.2-7.1,7.7-11,11.3c-4.4,4-8.8,8.1-12.8,12.6c-1,1.1-2,2.3-2.9,3.6c-0.3,0.4-0.4,0.6-0.8,0c-1.4-2.1-3.1-3.9-4.9-5.6
			c-6.3-6.2-12.6-12.4-18.4-19.2c-3.7-4.4-7.2-9-9.7-14.3C6.2,30,5.1,26.3,5.3,22.4c0.2-5.5,2.1-10.2,6.6-13.5
			c7.1-5.3,17.5-4,23.3,2.8c0.5,0.6,1,1.3,1.5,2c1.4,1.9,3.4,1.9,4.8-0.1c3-4.4,7.2-7.1,12.4-8C62.3,4,70.8,9,73.7,17.3
			c1,2.8,1.4,5.6,1.4,8.6C75.2,33.1,72.6,39.4,68.3,45"/>
		<path class="st0" d="M66.6,19c-0.6,0.3-0.5,0.8-0.3,1.3c1,2.8,1,5.7,0.3,8.5c-1.3,5.2-4.3,9.4-8,13.1c-1.1,1.1-2.4,2.1-3.7,3.1
			c-1.3,1-1.6,2.5-0.6,3.7c0.9,1.2,2.5,1.3,3.8,0.1c2.5-2.1,4.7-4.5,6.5-7.2c3.1-4.6,5-9.6,5.2-15.1c-0.1-2.5-0.5-4.9-1.8-6.9
			C67.6,18.9,67.2,18.7,66.6,19"/>
		<path class="st0" d="M50.3,48.9c-1.8,0-3.1,1.3-3.1,3.3c0,1.4,1.4,2.7,2.9,2.7c1.6,0,3-1.3,3-3.1C53.1,50.2,51.9,48.9,50.3,48.9"
			/>
	</g>
</g>
</svg>
