<?xml version="1.0" encoding="utf-8"?>
<!-- Generator: Adobe Illustrator 21.1.0, SVG Export Plug-In . SVG Version: 6.00 Build 0)  -->
<svg version="1.1" id="Layer_1" xmlns="http://www.w3.org/2000/svg" xmlns:xlink="http://www.w3.org/1999/xlink" x="0px" y="0px"
	 width="160px" height="120px" viewBox="0 0 160 120" style="enable-background:new 0 0 160 120;" xml:space="preserve">
<style type="text/css">
	.st0{clip-path:url(#SVGID_2_);fill-rule:evenodd;clip-rule:evenodd;fill:#231069;}
	.st1{clip-path:url(#SVGID_2_);fill-rule:evenodd;clip-rule:evenodd;fill:#E0000B;}
	.st2{clip-path:url(#SVGID_2_);fill-rule:evenodd;clip-rule:evenodd;fill:#0094DF;}
	.st3{clip-path:url(#SVGID_2_);fill-rule:evenodd;clip-rule:evenodd;fill:#FFF100;}
	.st4{clip-path:url(#SVGID_2_);fill-rule:evenodd;clip-rule:evenodd;fill:#FFFFFF;}
	.st5{clip-path:url(#SVGID_2_);fill-rule:evenodd;clip-rule:evenodd;fill:#008E3D;}
</style>
<g>
	<defs>
		<rect id="SVGID_1_" width="160" height="120"/>
	</defs>
	<clipPath id="SVGID_2_">
		<use xlink:href="#SVGID_1_"  style="overflow:visible;"/>
	</clipPath>
	<path class="st0" d="M120.4,36.3c6.9,2.2,9.6,6.8,14,9.9c6.1,4.3,13,7.8,13.8,14.6c1.6,12.9,2.6,24.3-14,32.1
		c-4.2,2-7.1,8.6-11,10.8c-10.7,5.9-22.2,7.5-36.6,10c-11.7,2.1-25.1,4.1-35.3,2.9c-7-0.9-11-4.8-18.1-5.5c-1-0.1-2-0.3-3-0.4
		c1.4-0.3,2.9-0.6,4.5-1.1c16-4.9,31.8,5.9,50.5,2.5c11.1-2,23.6-4.6,31.9-9c5.7-3,7.4-7.7,13.2-10.7c19.7-10.1,18.2-35.4-0.4-46.4
		c-3.8-2.3-7.5-6.8-12.8-7.3c-7.2-0.7-14.5-4.3-20.2-4.7c-8.5-0.7-20.5,1.5-30.3,2.2c-20.3,1.4-29.6,14.5-45,19.7
		C6.7,60.9,7.5,81.2,8.4,86.3c1.2,6.7,2.6,12.5,4.8,16.8c-5-4.4-7.7-10.2-7.7-16.6C5.4,75,4.1,63.3,19.4,54.4
		c7.1-4.1,10-8.5,17.2-11.9c7.9-3.7,20.6-6,30.4-8.9C87.9,27.5,102.3,30.5,120.4,36.3"/>
	<path class="st1" d="M66.7,36.3c9.8-0.7,21.8-2.8,30.3-2.2c6.9,0.5,12.8,4,20.2,4.7c5.3,0.5,9,5,12.8,7.3
		c18.5,11,20.1,36.3,0.4,46.4c-5.8,3-7.5,7.6-13.2,10.7c-8.3,4.4-20.8,7-31.9,9c-18.7,3.3-34.5-7.5-50.5-2.5
		c-19.1,5.9-23.2-5.6-26.4-23.3C7.5,81.2,6.7,60.9,21.6,56C37.1,50.8,46.3,37.7,66.7,36.3"/>
	<path class="st1" d="M146.4,83c0.5,11.3-2.4,22.1-17.3,25.4c-6,1.3-8.3,5.4-14.2,6.8c-5.2,1.3-11.8,1.5-18.6,1.3l0,0l0.1,0
		c2.2-0.8,4.4-1.6,6.5-2.6c0.2-0.1,0.4-0.2,0.7-0.3c2.6-0.2,5.1-0.6,7.3-1.1c5.9-1.4,8.3-5.5,14.3-6.8c11.3-2.5,15.7-9.4,17-17.5
		C144,86.5,145.3,84.8,146.4,83"/>
	<path class="st1" d="M15.5,51.4c3-3.4,4-9.5,9.4-12.1c8.3-4.1,16.3-6.8,25.7-7.3c2.4-0.1,4.8-0.1,7.2,0c-1.6,0.7-3.1,1.4-4.5,2.2
		c-4.1,1.2-6.2,1.6-8.6,2.2c-6.4,1.4-12.6,3.6-18.1,6.4c-2.3,1.2-3.9,2.7-5.1,4.3C19.6,48.4,17.5,49.9,15.5,51.4"/>
	<path class="st2" d="M88.6,25.6c-9.7-0.5-21.2,2.9-29.3,5.8c-9,3.2-3.3,2-14.5,4.9c-6.4,1.4-12.6,3.6-18.1,6.4
		c-2.3,1.2-3.9,2.7-5.1,4.3c-3.3,2.2-6.6,4.7-9.8,7.3C6.3,58.7,6,64,3.2,68.5c-3,4.9-1.2,23,4.1,26.7c-1.2-2.7-1.8-5.6-1.8-8.7
		C5.4,75,4.1,63.3,19.4,54.4c7.1-4.1,10-8.5,17.2-11.9c7.9-3.7,20.6-6,30.4-8.9c11.5-3.4,21.4-3.9,31.1-2.7c0.2,0,13.4,2.7,13.8,2.8
		c2.8,0.8,5.6,1.6,8.5,2.5c6.9,2.2,9.6,6.8,14,9.9c6.1,4.3,13,7.8,13.8,14.6c0.4,3.1,0.7,6.1,0.8,9c1.3-3.6,2.1-7.5,2.9-11.5
		c1.3-6.6-9.4-9.2-13.5-13.9c-3-3.4-4.2-4.4-9.8-6.4c-7.7-2.8-12.9-6.3-20.2-8.9C102.1,27,95.5,26,88.6,25.6 M15.2,104.7
		c4.6,3.3,10.7,5.6,18.2,6.4c7.1,0.8,11.1,4.7,18.1,5.5c10.2,1.3,23.6-0.8,35.3-2.9c14.4-2.6,25.9-4.1,36.6-10
		c3.9-2.2,6.8-8.8,11-10.8c3.2-1.5,5.7-3.1,7.7-4.9c-1.2,8.1-5.6,15-17,17.5c-6,1.3-8.3,5.4-14.2,6.8c-2.2,0.5-4.7,0.9-7.3,1.1
		c-5.5,2.5-11.5,4.6-18.5,5.7c-20.4,3.2-41.5-4.5-59.7-6.2C18.3,112.3,15.9,108.7,15.2,104.7"/>
	<path class="st3" d="M115.5,32.2c16.8-0.8,23.4,7.5,28.5,16.5c-2.1-1.3-4.1-2.6-5.5-4.1c-3-3.4-4.2-4.4-9.8-6.4
		C123.7,36.3,119.7,34.2,115.5,32.2 M52,117.5c-0.5,0.1-1.1,0.1-1.6,0.2c-9.5,1.3-16-0.7-21.2-4.3C36.5,114.4,44.2,116.1,52,117.5"
		/>
	<path class="st0" d="M104,50.6c1.1-3.7,12.3-6.5,13.2,2.3c0.2,2.3-0.3,4.4-1.5,6.3c-0.6,1-1.5,1.8-2.4,2.6c-1,0.9-2.2,1.7-3.6,1.9
		l-1.3,0.1c-1.2-1-2.1-1.5-2.3-3.2c-0.1-1,0.1-2,0.3-2.9c0.2-0.8,0.3-1.5-0.2-2.3c-0.3-0.5-1-1.2-1.5-1.6l-1.3-1.3L104,50.6z"/>
	<path class="st0" d="M121.1,59.7c5-3.3,16.6-2.4,21.2-1.6c12.2,2,18.8,9.7,6.8,18.8l-0.1,0.1l-6.4,3.3l6.1,0.6
		c1.6,0.1,3.9,0.1,5.5,0.5c7.7,0.4,8.4,9.3-0.8,12c-2.4,0.7-4.9,1-7.3,1.2c-5.1,0.5-8.3,0.6-13.4,0.1c-3-0.3-7.2-0.8-10.5-2.3
		c-3-1.6-4.7-4.1-5.1-7.5c0.2-3.7,3.7-6.6,6.6-8.5l0.1,0c3-2,6-3.9,9.1-5.9c0.3-0.2,0.3-0.3,0.4-0.4c0.1-0.6-1.5-0.8-3.6-1.1
		c-2.6-0.3-6-0.7-8.2-2C117.8,65,117.8,61.9,121.1,59.7"/>
	<path class="st2" d="M106.7,52.6c1.8-2,8.5-2.8,9,2.5c0.2,1.8-0.3,3.5-1.2,5.1c-0.4,0.7-1.3,1.5-2,2c-0.7,0.5-1.7,1.3-2.5,1.4
		l-0.5,0l-0.6-0.5l-0.3-0.5l0-0.3c-0.1-0.7,0.1-1.6,0.3-2.2c0.1-0.4,0.3-1.1,0.2-1.6c-0.1-0.8-0.3-1.6-0.7-2.3
		c-0.4-0.6-1-1.2-1.5-1.7C106.3,53.9,105.9,53.5,106.7,52.6"/>
	<path class="st0" d="M122,92.3l-0.5,0.9c-3.2,5.7-11.2,6.7-15.8,2.3c-3.8,5.6-11.7,5.9-16.2,0.5c0,0,0-0.1-0.1-0.1
		c-3.8,5.6-11.7,5.9-16.2,0.5c-0.5-0.6-0.9-1.2-1.2-1.8c-0.3-0.5-0.5-1-0.7-1.5c-0.3,0.8-0.6,1.7-1,2.5c-8.1,16.7-31,12.7-38.2-3
		c1.1,10.3-2.6,21.3-14.7,21.6c-7.2,0.2-13.1-5.2-14.9-11.3c-0.8-2.7-0.9-5.2-0.4-7.5c0.7-3.2,2.9-7.5,6.8-6.3
		c3.9,1.2,2,5.3,2.3,7.1c0.3,1.6,1.2,2.9,2.9,2.9c8,0.2-0.9-19.7-2-22.1c-1.6,0.6-3.1,1.5-4.3,2.8l-1.7,1.8l-2.1-1.3
		c-3.1-1.9-4.7-6.1-3.8-9.7c1.3-5.4,6.9-7.4,11.8-7.9c3.3-0.3,6.7-0.8,9.9-1.6C29.4,59,29,58,33,52.2c0.9,3.4,2.2,7.6,2.4,11.1
		c0.3-0.3,0.6-0.6,0.8-0.9c2.7-2.9,5.2-4.5,7.7-5.4c10.6-3.7,22,4.4,27,16.2c0-0.2,0.1-0.5,0.1-0.7c0.2-1.1,0.4-2.2,0.8-3.3
		c1.1-3.5,2.3-7,3.9-10.4c0.7-1.6,1.6-3.1,2.5-4.7c0.7-1.2,1.5-2.5,2.6-3.5c4.8-4.4,8.7,0.5,7.3,6.4c-0.4,1.6-0.8,3.1-1.3,4.6
		c-1.8,7.1-4.5,20.4-1.1,25.8c0.1,0.1,0.3,0.4,0.4,0.6c-0.1-0.6-0.2-1.3-0.2-1.9c-0.8-8.6,2.4-20,6-27.8c0.7-1.6,1.6-3.1,2.5-4.7
		c0.7-1.2,1.6-2.6,2.7-3.6c3.5-3.1,7.2-1,7.6,3.1c0.2,2.4-2.1,9.5-2.7,12.4c-1.4,7-2.6,16.6-0.8,20.3c-1.2-8.1,1-18.6,7.5-24
		c2.2-1.8,4-2.4,5.4-2c5.5,1.4,2.1,11,1.5,14.9c-0.5,3.3-0.8,7,1,10C117.3,88.3,119,90.7,122,92.3"/>
	<path class="st2" d="M16.7,103.1c-5,1.8-8.5-4.5-7.9-7.6c0.5-2.3-1.3-2.8-2.8-2c-0.5,0.3-1,0.8-1.3,1.4c-2.1,4.5,0.9,12.5,7.8,15.3
		c8.6,3.4,16.2-1.9,17.1-11.1c0.7-7.1-2.4-19.9-5.8-27.3c6.4-0.8,10.9-2.5,8.3-12.4c-3,4.3-16.9,5.8-19.7,6.1
		C0.3,66.7,2.2,75.3,5.7,77.5c2.3-2.4,5.3-3.6,8.4-4.3C16.1,78,26.4,99.7,16.7,103.1 M54.1,81.3c-4.6,4-4.8-9.2,2.8-5
		c11.4,6.3-7.9,25.1-14.3,6.7C36,64.2,66.2,53.1,70.2,78.8c5.3,34-39,31.5-37.2-0.8c0.6-10.4,9.5-19.6,17.5-18.4l4,1.6
		c-9.8,2.9-21,11.2-13.8,25.2c10,19.2,30.2-3.1,17.3-12.5C47.8,66.5,44.5,88,54,84.1C61.9,80.9,48.4,76.6,54.1,81.3 M75.7,93.1
		c3.5,6.3,10.4,4.9,13.8-1.1c-8.6-0.5-7.7-13.7-6.6-19.9c0.3-1.9,0.7-3.8,1-5.7l0,0c0.3-1.7,0.8-3.6,1.2-5.3c0.4-1.5,0.9-3,1.3-4.6
		c0.1-0.6,0.5-1.8,0.4-2.4c-0.1-0.5-0.2-1.1-0.7-1.4l-0.5-0.4l-0.6,0.1c-1.3,0.3-2.5,2.4-3.2,3.4c-0.9,1.4-1.7,2.9-2.4,4.4
		c-1.5,3.2-2.7,6.6-3.8,10c-0.3,0.9-0.5,2-0.7,3c-0.4,1.8-0.7,3.7-1,5.6c-0.5,2.6-0.5,5.1-0.3,7.7C74.1,88.8,74.6,91.2,75.7,93.1
		 M90.3,86c-0.3-2.6-0.2-5.2,0.3-7.7c0.3-1.9,0.7-3.7,1-5.6c0.2-1,0.4-2,0.7-3c1.1-3.4,2.3-6.8,3.8-10c0.7-1.5,1.5-3,2.4-4.4
		c0.6-1,1.9-3.1,3.2-3.4l0.6-0.1l0.5,0.4c0.4,0.4,0.6,0.9,0.7,1.4c0.1,0.6-0.3,1.8-0.4,2.4c-0.4,1.5-0.8,3.1-1.2,4.6
		c-2.3,9-3.3,14.8-2.4,24.3c0.4,3.8,2.9,6.5,6.6,6.7C99.9,102.4,91.2,95,90.3,86 M106.1,76.8c-0.5,2.6-0.5,5.1-0.3,7.7
		c1,10.4,10.2,15.3,15.6,5.6c-8-0.5-7.7-10.9-6.8-17c0.1-0.3,0.2-0.7,0.3-1.1c0.2-1,0.5-1.9,0.7-2.9c0.3-1.2,0.8-3.1,0.6-4.3
		c-0.1-0.8-0.5-1.6-1.3-1.7l-0.5-0.1l-0.4,0.3C109.3,66.1,107.1,71.4,106.1,76.8"/>
	<path class="st4" d="M105,74.4c0.9-4.7,2.7-9.3,6.4-12.4c1.4-1.1,3.5-2.4,3.8,0.4c0.1,1.2-0.3,3.1-0.6,4.3
		c-0.2,0.9-0.5,1.9-0.7,2.8c-0.1,0.4-0.2,0.8-0.3,1.1c-0.9,5.8-1.6,16.4,6.7,16.9c-6,10.6-14.6,3.7-15.6-5.5
		C104.4,79.6,104.5,77,105,74.4"/>
	<path class="st4" d="M105.7,50.2c2.4-2.1,8.4-2.4,8.9,2.6c0.2,1.8-0.3,3.5-1.2,5c-0.4,0.7-1.3,1.5-1.9,2c-0.7,0.5-1.6,1.3-2.5,1.4
		c-0.7,0.1-1.3-0.5-1.4-1.2c-0.1-0.7,0.1-1.6,0.3-2.2c0.3-1.3,0.3-2.6-0.5-3.8c-0.4-0.6-1.2-1.4-1.7-2C105,51.4,105,50.8,105.7,50.2
		"/>
	<path class="st4" d="M53.1,78.9c-2.7-2.3-0.1-3.4,1.6-2.5c1.7,0.9,2.4,3.8-1.6,5.4c-9.5,3.9-6.2-17.6,4.1-10.1
		C70,81,49.9,103.2,39.9,84.1C32.7,70.2,44.1,58.9,53.7,59c-11.8-4.7-20.8,5.5-21.4,16.7c-1.8,32.1,42.3,34.6,37,0.8
		c-3.4-21.7-25.6-17-28.2-3.6c-1.1,5.7,2.3,14.3,8.9,15c7.2,0.7,13.9-9.5,6-13.9C48.4,69.7,47.3,81.7,53.1,78.9"/>
	<path class="st4" d="M4.5,94c-2.1,7.1,4.5,16.6,14.3,14.7c5.1-1,9.4-5.7,10-11.9c0.7-7.1-2.4-19.8-5.8-27.2
		c6.3-0.8,10.9-2.5,8.3-12.3c-3,4.3-16.8,5.8-19.6,6.1C-0.3,64.4,1.5,72.9,5,75.1c2.3-2.4,5.2-3.6,8.3-4.3
		c1.7,4.3,5.5,11.3,6.4,21.1c0.7,8.2-5.7,11.5-9,7.9c-1.3-1.5-1.8-3.5-1.8-5.5c0-0.8,0-1.5-0.3-2c-0.3-0.5-0.9-0.7-1.4-0.8
		C6.2,91.4,5,92.3,4.5,94"/>
	<path class="st4" d="M90.4,88.7c-0.6-1.5-0.9-3.3-1.1-5.1c-0.3-2.6-0.2-5.1,0.3-7.7c0.3-1.8,0.7-3.7,1-5.5c0.2-1,0.4-2,0.7-3
		c1.1-3.4,2.3-6.7,3.8-9.9c0.7-1.5,1.5-2.9,2.4-4.4c0.5-0.8,1.3-2.4,2.3-3.1c1.3-0.9,2.3-0.1,2.5,1.3c0.1,0.6-0.3,1.8-0.4,2.3
		c-0.4,1.5-0.8,3.1-1.2,4.6c-0.4,1.7-0.9,3.6-1.2,5.3l0,0c-1.3,7.2-4.9,24.9,5.5,25.5C100.8,96.3,93.7,96.1,90.4,88.7"/>
	<path class="st4" d="M73.9,89.1c-0.6-1.5-0.9-3.3-1.1-5.1c-0.3-2.6-0.2-5.1,0.3-7.7c0.3-1.8,0.7-3.7,1-5.5c0.2-1,0.4-2,0.7-3
		c1.1-3.4,2.3-6.7,3.8-9.9c0.7-1.5,1.5-2.9,2.4-4.4c0.5-0.8,1.4-2.4,2.4-3.1c0.6-0.4,1.2-0.5,1.8-0.1c0.4,0.4,0.6,0.9,0.6,1.4
		c0.1,0.6-0.3,1.8-0.4,2.3c-0.4,1.5-0.8,3.1-1.2,4.6c-0.4,1.7-0.9,3.6-1.2,5.3l0,0c-0.3,1.9-0.7,3.8-1,5.7
		c-1.1,6.1-2.1,19.4,6.5,19.8C84.1,97.1,77,96.1,73.9,89.1"/>
	<path class="st2" d="M137.2,82.9c0.3,0.2,0.9,0.4,1.1,0.5c1.1,0.4,2.4,0.6,3.6,0.7l10.6,0.9c1.5,0.1,3.1,0.3,4.6,0.6
		c3.8,0.9,3.4,3.7-0.4,4.8c-2.1,0.6-4.7,0.9-6.9,1.1c-5,0.5-10.1,0.5-15.1,0c-32.2-2.7,4.7-19.1,5.7-22.1c-0.7-3-16.5-1.8-16.9-5.4
		c-0.6-5.6,25.7-4.8,30,1c3.1,4.2-5.3,10.1-12.5,14.8C140.3,80.3,137.7,82.1,137.2,82.9"/>
	<path class="st4" d="M135.9,80.5c0.3,0.2,0.9,0.4,1.1,0.5c1.1,0.4,2.4,0.6,3.6,0.7l10.5,0.9c1.5,0.1,3.1,0.3,4.5,0.6
		c3.8,0.9,3.4,3.7-0.4,4.8c-2.1,0.6-4.6,0.9-6.9,1.1c-5,0.5-10.1,0.5-15.1,0c-23.7-2-10-11.4,1.5-18.5c0.7-0.5,3.9-2.6,4.2-3.5
		c-0.9-3.8-16.4-1.2-16.8-5.4c-0.1-1.5,1.3-2.2,2.5-2.6c5.6-1.8,24.9-1.8,27.7,4.3c1.9,4.1-6,9.6-12.8,14.1
		C139,78,136.5,79.7,135.9,80.5"/>
	<path class="st3" d="M110.1,45.1c0.4,0,0.7-0.2,1-0.4l0,0l3.4-3.4h0c0.2-0.2,0.4-0.6,0.4-1c0-0.2,0-0.3-0.1-0.4
		c-1.4-4-2.2-8.3-2.2-12.7c0-4.5,0.8-8.8,2.2-12.7c0-0.1,0.1-0.3,0.1-0.4c0-0.4-0.1-0.7-0.4-1h0l-3.4-3.4l0,0
		c-0.2-0.3-0.6-0.4-1-0.4c0,0-0.1,0-0.1,0c-11,2-22.3,3-33.9,3c-11.6,0-22.9-1-33.9-3c0,0-0.1,0-0.1,0c-0.4,0-0.7,0.2-1,0.4l0,0
		L37.7,13h0c-0.2,0.2-0.4,0.6-0.4,1c0,0.2,0,0.3,0.1,0.4c1.4,4,2.2,8.3,2.2,12.7c0,4.5-0.8,8.8-2.2,12.7c0,0.1-0.1,0.3-0.1,0.4
		c0,0.4,0.1,0.7,0.4,1h0l3.4,3.4l0,0c0.2,0.3,0.6,0.4,1,0.4c0,0,0.1,0,0.1,0c11-2,22.3-3,33.9-3C87.7,42.1,99,43.1,110.1,45.1
		C110,45.1,110.1,45.1,110.1,45.1"/>
	<path class="st1" d="M108.7,37.3c0,0.8-0.7,1.5-1.5,1.5H45c-0.8,0-1.5-0.7-1.5-1.5V17c0-0.8,0.7-1.5,1.5-1.5h62.2
		c0.8,0,1.5,0.7,1.5,1.5V37.3z"/>
	<path class="st4" d="M85.7,9.6c0,5.3-4.3,9.6-9.6,9.6c-5.3,0-9.6-4.3-9.6-9.6c0-5.3,4.3-9.6,9.6-9.6C81.4,0,85.7,4.3,85.7,9.6"/>
	<path class="st5" d="M84.6,9.6c0,4.7-3.8,8.5-8.5,8.5c-4.7,0-8.5-3.8-8.5-8.5c0-4.7,3.8-8.5,8.5-8.5C80.8,1.1,84.6,4.9,84.6,9.6"/>
	<path class="st4" d="M57.7,35.8c0.3-0.2,0.4-0.3,0.5-0.5c0.1-0.2,0.1-0.3,0-0.6c0-0.1-0.1-0.2-0.1-0.3c-0.1-0.2-0.2-0.4-0.3-0.6
		c-0.1-0.3-0.2-0.5-0.4-0.9c-0.1-0.3-0.3-0.7-0.4-1h-5.1c-0.2,0.4-0.3,0.7-0.4,1c-0.1,0.3-0.3,0.6-0.4,0.9c-0.1,0.3-0.2,0.5-0.2,0.6
		c-0.1,0.2-0.1,0.3-0.1,0.3c-0.1,0.2-0.1,0.5,0,0.6c0.1,0.2,0.2,0.3,0.5,0.4h-2.9c0.3-0.2,0.5-0.4,0.6-0.5c0.1-0.1,0.2-0.3,0.4-0.5
		c0-0.1,0.2-0.4,0.4-0.8c0.2-0.4,0.4-1,0.7-1.6c0.3-0.7,0.6-1.4,0.9-2.2c0.3-0.8,0.7-1.6,1.1-2.4c0.8-1.9,1.8-4.1,2.8-6.5
		c1,2.4,2,4.6,2.8,6.5c0.4,0.8,0.7,1.6,1.1,2.4c0.3,0.8,0.7,1.5,1,2.2c0.3,0.7,0.5,1.2,0.7,1.6c0.2,0.4,0.3,0.7,0.4,0.8
		c0.1,0.2,0.2,0.4,0.3,0.5c0.1,0.1,0.3,0.3,0.7,0.5H57.7z M80.3,27.3c-0.2-0.4-0.6-0.7-0.9-0.9c-0.4-0.2-0.7-0.4-1.1-0.4
		c-0.4-0.1-0.7-0.1-1-0.1c-0.8,0-1.5,0.1-2.1,0.3c-0.6,0.2-1,0.4-1.4,0.6v2.8c0.1-0.3,0.3-0.7,0.4-1c0.2-0.3,0.4-0.6,0.6-0.9
		c0.2-0.3,0.5-0.5,0.8-0.6c0.3-0.2,0.7-0.2,1.1-0.2c0.6,0,1,0.2,1.2,0.5c0.3,0.4,0.4,0.8,0.4,1.2c0,0.1,0,0.3,0,0.5
		c0,0.2-0.1,0.3-0.2,0.4c-0.2,0.2-0.4,0.3-0.8,0.4c-0.3,0.1-0.7,0.2-1.1,0.4c-0.4,0.1-0.8,0.2-1.2,0.4c-0.4,0.1-0.7,0.3-1,0.4
		c-0.5,0.3-0.9,0.7-1.1,1.1c-0.2,0.4-0.3,0.8-0.3,1.2c0,0.2,0,0.5,0.1,0.8c0.1,0.3,0.3,0.6,0.5,0.9c0.2,0.3,0.5,0.5,0.8,0.7
		c0.3,0.2,0.7,0.3,1.2,0.3c0.3,0,0.7,0,1-0.1c0.3-0.1,0.6-0.2,0.9-0.3c0.3-0.1,0.5-0.3,0.7-0.4c0.2-0.1,0.4-0.3,0.5-0.4v0.2v0.9h2.9
		c-0.2-0.1-0.3-0.2-0.4-0.3c-0.1-0.1-0.2-0.3-0.2-0.6v-0.7l0,0v-5.3C80.7,28.2,80.6,27.7,80.3,27.3 M78.3,30.5v3.3
		c-0.2,0.2-0.5,0.4-0.8,0.6c-0.3,0.1-0.7,0.2-1.1,0.2c-0.4,0-0.8-0.1-1-0.4C75.1,33.9,75,33.5,75,33c0-0.5,0.1-0.8,0.4-1.1
		c0.3-0.3,0.6-0.5,1-0.7c0.4-0.2,0.7-0.3,1-0.4C77.7,30.8,78,30.6,78.3,30.5 M88.7,35.8c0.2-0.1,0.3-0.2,0.4-0.3
		c0.1-0.1,0.1-0.3,0.1-0.6v-5.3c0-0.2,0-0.5-0.1-0.8c0-0.3-0.1-0.5-0.3-0.7c-0.1-0.2-0.3-0.4-0.6-0.6c-0.3-0.1-0.6-0.2-1-0.2
		c-0.4,0-0.7,0.1-1.1,0.3c-0.3,0.2-0.6,0.4-0.8,0.6v6.6c0,0.3,0,0.4,0.1,0.6c0.1,0.1,0.2,0.2,0.4,0.3h-3.5c0.2-0.1,0.3-0.2,0.4-0.3
		c0.1-0.1,0.1-0.3,0.1-0.6v-7.7c0-0.3-0.1-0.6-0.2-0.7c-0.1-0.1-0.3-0.2-0.5-0.2l3.1-0.5v1.4c0.1-0.1,0.3-0.3,0.5-0.5
		c0.2-0.2,0.5-0.3,0.7-0.5c0.3-0.1,0.5-0.3,0.9-0.3c0.3-0.1,0.6-0.1,1-0.1c0.4,0,0.8,0.1,1.2,0.2c0.4,0.1,0.7,0.3,1,0.6
		c0.3,0.3,0.5,0.6,0.7,1c0.2,0.4,0.2,0.8,0.2,1.3v6c0,0.3,0.1,0.4,0.2,0.6c0.1,0.1,0.2,0.2,0.4,0.3H88.7z M102.5,35.8
		c-0.2-0.1-0.3-0.2-0.4-0.3c-0.1-0.1-0.2-0.3-0.2-0.6v-0.7l0,0V21.4l-3.2,0.5c0.2,0.1,0.3,0.1,0.5,0.2c0.2,0.1,0.3,0.3,0.3,0.6v3.7
		c-0.2-0.2-0.5-0.3-0.8-0.4c-0.3-0.1-0.6-0.2-1.1-0.2c-0.7,0-1.4,0.1-2,0.4c-0.6,0.3-1.1,0.7-1.5,1.1c-0.4,0.5-0.8,1-1,1.6
		c-0.2,0.6-0.4,1.2-0.4,1.8c0,0.7,0.1,1.4,0.3,2c0.2,0.6,0.5,1.2,0.8,1.6c0.4,0.5,0.8,0.8,1.3,1.1c0.5,0.3,1.1,0.4,1.7,0.4
		c0.6,0,1.1-0.1,1.6-0.4c0.5-0.2,0.8-0.5,1.1-0.7v0.9H102.5z M99.5,29.6V34c-0.2,0.1-0.4,0.2-0.6,0.4c-0.2,0.1-0.5,0.2-0.8,0.2
		c-0.2,0-0.5-0.1-0.8-0.2c-0.3-0.1-0.6-0.3-0.9-0.6c-0.3-0.3-0.5-0.7-0.8-1.2c-0.2-0.5-0.3-1.2-0.3-2c0-0.5,0.1-1,0.2-1.4
		c0.1-0.5,0.3-0.9,0.5-1.2c0.2-0.4,0.5-0.6,0.9-0.8c0.4-0.2,0.8-0.3,1.2-0.3c0.4,0,0.7,0.1,0.9,0.2c0.2,0.2,0.4,0.3,0.5,0.5V29.6z
		 M68.4,35.8h3.5c-0.2-0.1-0.3-0.2-0.4-0.3c-0.1-0.1-0.2-0.3-0.2-0.6v-6c0-0.5-0.1-0.9-0.2-1.3c-0.2-0.4-0.4-0.7-0.7-1
		c-0.3-0.3-0.6-0.5-1-0.6c-0.4-0.1-0.8-0.2-1.2-0.2c-0.3,0-0.7,0-1,0.1c-0.3,0.1-0.6,0.2-0.9,0.3c-0.3,0.1-0.5,0.3-0.7,0.5
		c-0.2,0.2-0.4,0.3-0.5,0.5v-1.4L62,26.3c0.2,0.1,0.4,0.1,0.5,0.2c0.1,0.1,0.2,0.3,0.2,0.7v7.7c0,0.3,0,0.4-0.1,0.6
		c-0.1,0.1-0.2,0.2-0.4,0.3h3.5c-0.2-0.1-0.3-0.2-0.4-0.3c-0.1-0.1-0.1-0.3-0.1-0.6v-6.6c0.2-0.2,0.4-0.4,0.8-0.6
		c0.3-0.2,0.7-0.3,1.1-0.3c0.4,0,0.8,0.1,1,0.2c0.3,0.1,0.5,0.3,0.6,0.6c0.1,0.2,0.2,0.5,0.3,0.7c0,0.3,0.1,0.5,0.1,0.8v5.3
		c0,0.3,0,0.4-0.1,0.6C68.7,35.6,68.6,35.7,68.4,35.8 M56.5,30.8L56.5,30.8c-0.2-0.6-0.5-1.2-0.7-1.8c-0.2-0.6-0.5-1.1-0.7-1.6
		c-0.2-0.6-0.5-1.1-0.7-1.7c-0.3,0.7-0.5,1.3-0.8,2c-0.2,0.5-0.4,1.1-0.7,1.7c-0.2,0.6-0.4,1.1-0.6,1.5H56.5z"/>
	<path class="st4" d="M68.4,21.1c0,0,0-0.1-0.1-0.1c0,0-0.1-0.1-0.1-0.1c-0.1,0-0.2,0-0.2,0c-0.1,0-0.1,0-0.2,0c-0.1,0-0.2,0-0.3,0
		v2.6c0,0.1,0,0.2,0.1,0.2h-1.1c0.1,0,0.1-0.1,0.1-0.2v-2.6c-0.1,0-0.2,0-0.3,0c-0.1,0-0.2,0-0.2,0c-0.1,0-0.2,0-0.2,0
		c-0.1,0-0.1,0-0.1,0.1c0,0-0.1,0.1-0.1,0.1l0-0.5h2.7L68.4,21.1z M85.3,23.7c0.1,0,0.1-0.1,0.1-0.1c0,0,0-0.1,0-0.1c0,0,0,0,0-0.1
		c0,0,0-0.1,0-0.1c0,0,0-0.1-0.1-0.2c0-0.1,0-0.1-0.1-0.2h-1c-0.1,0.1-0.1,0.2-0.1,0.3c0,0.1-0.1,0.1-0.1,0.2c0,0.1,0,0.1,0,0.1
		c0,0,0.1,0.1,0.1,0.1h-0.8c0.1,0,0.1-0.1,0.1-0.1c0,0,0.1-0.1,0.1-0.1c0,0,0-0.1,0.1-0.2c0-0.1,0.1-0.2,0.2-0.4
		c0.1-0.1,0.1-0.3,0.2-0.5c0.1-0.2,0.2-0.4,0.2-0.5c0.2-0.4,0.4-0.9,0.6-1.4c0.2,0.5,0.5,1,0.7,1.4c0.1,0.2,0.2,0.4,0.3,0.5
		c0.1,0.2,0.2,0.3,0.2,0.5c0.1,0.1,0.1,0.3,0.2,0.4c0,0.1,0.1,0.2,0.1,0.2c0,0,0,0.1,0.1,0.1c0,0,0.1,0.1,0.1,0.1H85.3z M85,22.7
		L85,22.7c0-0.1-0.1-0.2-0.1-0.3c0-0.1-0.1-0.2-0.1-0.3c0-0.1-0.1-0.2-0.1-0.3c-0.1,0.1-0.1,0.3-0.2,0.4c0,0,0,0.1-0.1,0.1
		c0,0,0,0.1-0.1,0.1c0,0,0,0.1,0,0.1c0,0,0,0,0,0H85z M82.3,23.7h-2.2c0,0,0.1-0.1,0.1-0.1c0,0,0-0.1,0-0.1v-2.7c0-0.1,0-0.1,0-0.1
		c0,0-0.1-0.1-0.1-0.1h2.1l0,0.5c0-0.1-0.1-0.1-0.1-0.1c0,0-0.1,0-0.2,0c-0.1,0-0.1,0-0.2,0c-0.1,0-0.2,0-0.3,0c-0.1,0-0.2,0-0.3,0
		v0.9h0.6c0,0,0.1,0,0.1,0c0,0,0.1-0.1,0.1-0.1v0.6c0,0,0-0.1-0.1-0.1c0,0-0.1,0-0.1,0h-0.6v1.2c0,0,0.1,0,0.1,0c0.1,0,0.1,0,0.2,0
		c0.1,0,0.1,0,0.2,0c0.1,0,0.1,0,0.2,0c0,0,0.1,0,0.1,0c0,0,0.1,0,0.1,0c0,0,0.1,0,0.1-0.1c0,0,0.1-0.1,0.1-0.2L82.3,23.7z M79,21.1
		c0,0,0-0.1-0.1-0.1c0,0-0.1-0.1-0.1-0.1c-0.1,0-0.2,0-0.2,0c-0.1,0-0.1,0-0.2,0c-0.1,0-0.2,0-0.3,0v2.6c0,0.1,0,0.2,0.1,0.2h-1.1
		c0.1,0,0.1-0.1,0.1-0.2v-2.6c-0.1,0-0.2,0-0.3,0c-0.1,0-0.2,0-0.2,0c-0.1,0-0.2,0-0.2,0c-0.1,0-0.1,0-0.1,0.1c0,0-0.1,0.1-0.1,0.1
		l0-0.5H79L79,21.1z M75.2,22.7c0,0.1,0,0.3-0.1,0.4c-0.1,0.1-0.1,0.2-0.2,0.3c-0.1,0.1-0.2,0.2-0.4,0.2c-0.1,0.1-0.3,0.1-0.5,0.1
		c-0.2,0-0.4,0-0.6-0.1c-0.2,0-0.3-0.1-0.4-0.1l0-1c0,0.1,0,0.2,0.1,0.3c0,0.1,0.1,0.2,0.2,0.3c0.1,0.1,0.2,0.1,0.2,0.2
		c0.1,0,0.2,0.1,0.3,0.1c0.2,0,0.3,0,0.4-0.1c0.1-0.1,0.1-0.2,0.1-0.3c0-0.1,0-0.2-0.1-0.3c-0.1-0.1-0.1-0.1-0.2-0.2
		c-0.1,0-0.2-0.1-0.3-0.1c-0.1,0-0.2-0.1-0.3-0.1c-0.1-0.1-0.2-0.1-0.2-0.2c-0.1-0.1-0.1-0.1-0.1-0.2c0-0.1-0.1-0.1-0.1-0.2
		c0-0.1,0-0.1,0-0.2c0-0.2,0-0.3,0.1-0.5c0.1-0.1,0.2-0.2,0.3-0.3c0.1-0.1,0.2-0.1,0.4-0.2c0.1,0,0.2,0,0.3,0c0,0,0.1,0,0.1,0
		c0.1,0,0.1,0,0.2,0c0.1,0,0.1,0,0.2,0c0.1,0,0.1,0,0.2,0.1l0,0.8c0-0.1-0.1-0.1-0.1-0.2c0-0.1-0.1-0.1-0.2-0.2
		c-0.1-0.1-0.1-0.1-0.2-0.2c-0.1,0-0.2-0.1-0.3-0.1c-0.1,0-0.2,0-0.3,0.1c-0.1,0.1-0.1,0.2-0.1,0.3c0,0.1,0,0.1,0,0.2
		c0,0,0.1,0.1,0.1,0.1c0.1,0,0.1,0.1,0.2,0.1c0.1,0,0.2,0.1,0.3,0.1c0.1,0,0.2,0.1,0.3,0.1c0.1,0,0.2,0.1,0.3,0.2
		c0.1,0.1,0.2,0.2,0.2,0.3C75.2,22.4,75.2,22.6,75.2,22.7 M70.8,23.7c0.1,0,0.1-0.1,0.1-0.1c0,0,0-0.1,0-0.1c0,0,0,0,0-0.1
		c0,0,0-0.1,0-0.1c0,0,0-0.1-0.1-0.2c0-0.1,0-0.1-0.1-0.2h-1c-0.1,0.1-0.1,0.2-0.1,0.3c0,0.1-0.1,0.1-0.1,0.2c0,0.1,0,0.1,0,0.1
		c0,0,0.1,0.1,0.1,0.1h-0.8c0.1,0,0.1-0.1,0.1-0.1c0,0,0.1-0.1,0.1-0.1c0,0,0-0.1,0.1-0.2c0-0.1,0.1-0.2,0.2-0.4
		c0.1-0.1,0.1-0.3,0.2-0.5c0.1-0.2,0.2-0.4,0.2-0.5c0.2-0.4,0.4-0.9,0.6-1.4c0.2,0.5,0.5,1,0.7,1.4c0.1,0.2,0.2,0.4,0.3,0.5
		c0.1,0.2,0.2,0.3,0.2,0.5c0.1,0.1,0.1,0.3,0.2,0.4c0,0.1,0.1,0.2,0.1,0.2c0,0,0,0.1,0.1,0.1c0,0,0.1,0.1,0.1,0.1H70.8z M70.6,22.7
		L70.6,22.7c0-0.1-0.1-0.2-0.1-0.3c0-0.1-0.1-0.2-0.1-0.3c0-0.1-0.1-0.2-0.1-0.3c-0.1,0.1-0.1,0.3-0.2,0.4c0,0,0,0.1-0.1,0.1
		c0,0,0,0.1-0.1,0.1c0,0,0,0.1,0,0.1c0,0,0,0,0,0H70.6z"/>
	<path class="st4" d="M79,14.4h2.1c-1.8-4.1-5.1-7.4-10-8.2C75.2,7.5,77.2,10.5,79,14.4"/>
	<path class="st3" d="M73.6,8.3l-2.5,6h2.1l1.9-4.7C74.7,9.2,74.2,8.7,73.6,8.3 M79.2,9.8c-1.3-1.5-2.9-2.7-4.8-3.5l0.6-1.5h2.1h0
		L79.2,9.8z"/>
	<path class="st4" d="M91,8.5c0,0.6-0.3,1.2-0.7,1.6c-0.4,0.4-1,0.6-1.6,0.6c-0.6,0-1.2-0.2-1.6-0.6c-0.4-0.4-0.7-1-0.7-1.6
		c0-0.6,0.2-1.2,0.7-1.6c0.4-0.4,1-0.6,1.6-0.6c0.6,0,1.2,0.2,1.6,0.6C90.7,7.3,91,7.9,91,8.5 M88,9.5h0.4V8.7h0.1
		c0.1,0,0.2,0,0.2,0c0,0,0.1,0,0.1,0.1c0,0,0.1,0.1,0.2,0.3l0.3,0.5h0.5l-0.3-0.4c-0.1-0.2-0.2-0.3-0.2-0.3
		c-0.1-0.1-0.1-0.1-0.2-0.2c0.2,0,0.3-0.1,0.4-0.2c0.1-0.1,0.1-0.2,0.1-0.4c0-0.1,0-0.2-0.1-0.3c-0.1-0.1-0.1-0.2-0.2-0.2
		c-0.1,0-0.3-0.1-0.5-0.1H88V9.5z M88.4,8.3L88.4,8.3h0.3c0.2,0,0.3,0,0.4,0c0.1,0,0.1,0,0.1-0.1c0,0,0-0.1,0-0.2
		c0-0.1,0-0.1-0.1-0.2c0,0-0.1-0.1-0.2-0.1c0,0-0.1,0-0.3,0h-0.3V8.3z M90.1,9.8c0.3-0.3,0.5-0.8,0.5-1.3c0-0.5-0.2-1-0.5-1.3
		c-0.3-0.3-0.8-0.5-1.3-0.5c-0.5,0-1,0.2-1.3,0.5c-0.3,0.3-0.5,0.8-0.5,1.3c0,0.5,0.2,1,0.5,1.3c0.3,0.3,0.8,0.5,1.3,0.5
		C89.3,10.3,89.7,10.1,90.1,9.8"/>
</g>
</svg>
